<?xml version="1.0" encoding="UTF-8"?>
<!DOCTYPE svg PUBLIC "-//W3C//DTD SVG 1.0//EN" "http://www.w3.org/TR/2001/REC-SVG-20010904/DTD/svg10.dtd">
<!-- Creator: CorelDRAW 2021 (64 Bit) -->
<svg xmlns="http://www.w3.org/2000/svg" xml:space="preserve" width="300px" height="205px" version="1.0" style="shape-rendering:geometricPrecision; text-rendering:geometricPrecision; image-rendering:optimizeQuality; fill-rule:evenodd; clip-rule:evenodd"
viewBox="0 0 247.75 169.57"
 xmlns:xlink="http://www.w3.org/1999/xlink"
 xmlns:xodm="http://www.corel.com/coreldraw/odm/2003">
 <defs>
  <style type="text/css">
   <![CDATA[
    .str0 {stroke:#BDBFC1;stroke-width:0.21;stroke-miterlimit:22.9256}
    .fil0 {fill:#5263CE}
    .fil2 {fill:#5263CE}
    .fil1 {fill:#D1328E}
    .fil3 {fill:#FEFEFE;fill-rule:nonzero}
   ]]>
  </style>
 </defs>
 <g id="Camada_x0020_1">
  <metadata id="CorelCorpID_0Corel-Layer"/>
  <g id="_2134134773568">
   <path class="fil0 str0" d="M90.9 76.33c1.09,4 12.24,4.55 9.62,-3.54 -2.25,-6.94 -11.09,-1.86 -9.62,3.54z"/>
   <path class="fil0 str0" d="M200.98 75.51c0.73,5 11.33,5.37 9.99,-2.07 -1.21,-6.7 -10.87,-3.98 -9.99,2.07z"/>
   <path class="fil0 str0" d="M63.8 77.75c0.18,-2.15 1.75,-4.76 -1.24,-7.15 -2.01,-1.6 -5.13,-1.37 -6.77,0.62 -3.4,4.12 0.55,10.89 8.01,6.53z"/>
   <path class="fil1 str0" d="M8.66 78.23c3.44,-13.34 -13.24,-10.32 -7.24,0.23 3.11,1.55 4.12,1.17 7.24,-0.23z"/>
   <path class="fil1 str0" d="M44.78 71.68c3.98,-6.97 -3.66,-10.23 -7.02,-7.04 -3.93,3.73 0.07,11.51 7.02,7.04z"/>
   <path class="fil0 str0" d="M99.72 58.8c-10.88,-6.87 -11.09,13.57 -0.15,7.03 1.84,-2.91 1.8,-4.04 0.15,-7.03z"/>
   <path class="fil0 str0" d="M201.21 62.4c0.36,5.42 10.68,6.04 9.36,-1.4 -1.1,-6.16 -9.72,-4.05 -9.36,1.4z"/>
   <path class="fil0 str0" d="M201.27 87.8c0.57,4.33 10.3,6.18 9.37,-1.48 -0.83,-6.83 -10.1,-4.14 -9.37,1.48z"/>
   <path class="fil1 str0" d="M45.28 83.7c1.97,-9.01 -5.96,-9.31 -8.09,-5.64 -2.52,4.32 1.61,9.95 8.09,5.64z"/>
   <path class="fil0 str0" d="M91.37 50.93c0.64,4.48 10,5.45 9.22,-1.43 -0.73,-6.37 -10.03,-4.34 -9.22,1.43z"/>
   <path class="fil0 str0" d="M165.13 82.88c1.05,4.15 10.47,4.01 8.61,-2.94 -1.53,-5.7 -10.09,-2.91 -8.61,2.94z"/>
   <path class="fil0 str0" d="M128.32 57.49c0.86,4.14 9.88,4.47 8.74,-2.28 -1.01,-5.91 -9.94,-3.46 -8.74,2.28z"/>
   <path class="fil0 str0" d="M18.37 82.88c0.92,4.14 10.41,3.99 8.6,-2.9 -1.51,-5.74 -9.81,-2.5 -8.6,2.9z"/>
   <path class="fil0 str0" d="M164.94 68.95c0.83,4.04 10.06,4.38 8.85,-2.22 -1.07,-5.82 -10,-3.38 -8.85,2.22z"/>
   <path class="fil0 str0" d="M26.48 70.59c2.46,-8.14 -4.97,-8.74 -7.16,-5.57 -2.65,3.83 0.93,9.14 7.16,5.57z"/>
   <path class="fil1 str0" d="M36.72 56.67c0.56,3.92 9.4,4.96 8.37,-1.41 -0.92,-5.68 -9.1,-3.65 -8.37,1.41z"/>
   <path class="fil0 str0" d="M92.08 39.46c0.98,3.66 9.89,3.47 7.94,-2.93 -1.58,-5.21 -9.33,-2.25 -7.94,2.93z"/>
   <path class="fil0 str0" d="M92 112.37c0.84,3.87 9.21,3.99 8.08,-2.24 -1.01,-5.54 -9.24,-3.12 -8.08,2.24z"/>
   <path class="fil0 str0" d="M202.49 50.93c1.08,3.82 9.13,2.79 7.23,-2.9 -1.61,-4.81 -8.66,-2.14 -7.23,2.9z"/>
   <path class="fil0 str0" d="M202.2 100.08c0.38,3.9 8.89,4.75 7.56,-1.34 -1.14,-5.22 -7.97,-2.84 -7.56,1.34z"/>
   <path class="fil0 str0" d="M55.48 61.58c0.49,3.84 8.38,4.22 7.53,-1.45 -0.76,-5.07 -8.1,-3 -7.53,1.45z"/>
   <path class="fil0 str0" d="M135.42 41.16c-5.55,-2.46 -7.85,2.69 -5.25,5.25 2.7,2.66 8.1,0.58 5.25,-5.25z"/>
   <path class="fil1 str0" d="M80.44 41.23c-5.94,-2.81 -7.58,2.93 -5.16,5.24 2.58,2.47 8,0.4 5.16,-5.24z"/>
   <path class="fil1 str0" d="M75.43 102.19c-3.23,4.84 1.27,7.78 4.2,5.9 3.08,-1.99 2.25,-8.06 -4.2,-5.9z"/>
   <path class="fil0 str0" d="M98.32 28.47c3.62,-4.33 -0.98,-7.52 -3.91,-5.56 -3.07,2.04 -1.78,7.96 3.91,5.56z"/>
   <circle class="fil2 str0" cx="95.93" cy="1.65" r="1.55"/>
   <circle class="fil1 str0" cx="41.3" cy="43.66" r="2.33"/>
   <circle class="fil1 str0" cx="77.8" cy="31.84" r="2.57"/>
   <circle class="fil1 str0" cx="77.63" cy="80.58" r="4.9"/>
   <circle class="fil1 str0" cx="77.63" cy="67.94" r="4.63"/>
   <circle class="fil1 str0" cx="77.55" cy="54.87" r="4.36"/>
   <circle class="fil1 str0" cx="77.69" cy="93.91" r="4.63"/>
   <circle class="fil1 str0" cx="114.37" cy="81.81" r="4.9"/>
   <circle class="fil1 str0" cx="114.37" cy="69.13" r="4.36"/>
   <circle class="fil1 str0" cx="114.37" cy="56.45" r="3.81"/>
   <circle class="fil1 str0" cx="114.37" cy="94.49" r="4.36"/>
   <circle class="fil1 str0" cx="114.37" cy="107.17" r="3.81"/>
   <circle class="fil1 str0" cx="114.37" cy="43.77" r="3.27"/>
   <circle class="fil1 str0" cx="114.37" cy="31.09" r="2.72"/>
   <circle class="fil1 str0" cx="114.37" cy="119.85" r="3.27"/>
   <circle class="fil1 str0" cx="114.37" cy="132.53" r="1.55"/>
   <circle class="fil1 str0" cx="114.37" cy="18.41" r="1.55"/>
   <circle class="fil1 str0" cx="77.69" cy="117.27" r="1.78"/>
   <circle class="fil1 str0" cx="151.06" cy="61.45" r="4.36"/>
   <circle class="fil1 str0" cx="150.85" cy="74.42" r="4.74"/>
   <circle class="fil1 str0" cx="151.22" cy="87.49" r="4.27"/>
   <circle class="fil1 str0" cx="151.23" cy="100.6" r="2.85"/>
   <circle class="fil1 str0" cx="151.35" cy="48.64" r="2.85"/>
   <circle class="fil1 str0" cx="187.71" cy="74.42" r="4.74"/>
   <circle class="fil1 str0" cx="187.97" cy="87.96" r="3.81"/>
   <circle class="fil1 str0" cx="187.79" cy="60.84" r="3.81"/>
   <circle class="fil1 str0" cx="224.41" cy="67.4" r="4.74"/>
   <circle class="fil1 str0" cx="224.6" cy="81.26" r="4.74"/>
   <circle class="fil1 str0" cx="224.49" cy="54.07" r="3.27"/>
   <circle class="fil1 str0" cx="224.56" cy="94.79" r="3.27"/>
   <circle class="fil0 str0" cx="96.5" cy="98.71" r="4.63"/>
   <circle class="fil0 str0" cx="95.98" cy="86.77" r="4.9"/>
   <circle class="fil0 str0" cx="96.15" cy="135.37" r="2.72"/>
   <circle class="fil0 str0" cx="133.03" cy="117.44" r="2.18"/>
   <circle class="fil1 str0" cx="41.17" cy="105.37" r="2.72"/>
   <circle class="fil1 str0" cx="40.89" cy="93.04" r="4.08"/>
   <circle class="fil2 str0" cx="242.75" cy="74.38" r="4.9"/>
   <circle class="fil2 str0" cx="95.89" cy="144.55" r="1.55"/>
   <circle class="fil2 str0" cx="96.21" cy="123.26" r="3.27"/>
   <circle class="fil2 str0" cx="132.67" cy="80.6" r="4.9"/>
   <circle class="fil2 str0" cx="96.02" cy="13.45" r="2.57"/>
   <circle class="fil2 str0" cx="132.96" cy="31.66" r="1.92"/>
   <circle class="fil2 str0" cx="205.94" cy="37.01" r="1.92"/>
   <circle class="fil2 str0" cx="59.25" cy="87.98" r="3.54"/>
   <circle class="fil2 str0" cx="206.1" cy="112.03" r="2.18"/>
   <circle class="fil2 str0" cx="132.82" cy="68.12" r="4.36"/>
   <circle class="fil2 str0" cx="132.66" cy="92.77" r="4.36"/>
   <circle class="fil2 str0" cx="132.64" cy="105.02" r="3.54"/>
  </g>
  <path class="fil3" d="M33.75 142.36c1.7,0 3.22,0.37 4.56,1.12 1.35,0.75 2.4,1.79 3.16,3.1 0.75,1.33 1.14,2.81 1.14,4.47 0,1.71 -0.38,3.24 -1.13,4.58 -0.75,1.34 -1.8,2.38 -3.13,3.13 -1.33,0.76 -2.84,1.13 -4.52,1.13l-7.54 0 0 9.11 -3.47 0 0 -26.64 10.93 0zm-0.08 14.4c1.02,0 1.95,-0.25 2.78,-0.75 0.84,-0.5 1.49,-1.18 1.98,-2.05 0.47,-0.86 0.7,-1.83 0.7,-2.89 0,-1 -0.24,-1.94 -0.72,-2.8 -0.48,-0.86 -1.14,-1.55 -1.98,-2.05 -0.85,-0.5 -1.78,-0.75 -2.8,-0.75l-7.34 0 0 11.29 7.38 0zm16.22 -7.74l0 4.47c0.5,-1.4 1.28,-2.5 2.33,-3.29 1.07,-0.79 2.31,-1.18 3.75,-1.18l1.94 0 0 2.95 -1.77 0c-1.17,0 -2.23,0.31 -3.15,0.91 -0.93,0.61 -1.65,1.49 -2.18,2.64 -0.52,1.15 -0.78,2.51 -0.78,4.08l0 9.4 -3.39 0 0 -19.98 3.25 0zm19.69 20.55c-1.93,0 -3.69,-0.47 -5.27,-1.41 -1.6,-0.94 -2.84,-2.22 -3.75,-3.83 -0.91,-1.61 -1.36,-3.39 -1.36,-5.32 0,-1.92 0.45,-3.69 1.36,-5.31 0.91,-1.62 2.15,-2.9 3.73,-3.84 1.59,-0.94 3.35,-1.41 5.29,-1.41 1.95,0 3.72,0.47 5.31,1.41 1.59,0.94 2.85,2.22 3.75,3.83 0.91,1.62 1.37,3.39 1.37,5.32 0,1.93 -0.46,3.71 -1.37,5.32 -0.9,1.61 -2.15,2.89 -3.73,3.83 -1.6,0.94 -3.37,1.41 -5.33,1.41zm0.04 -3.18c1.31,0 2.5,-0.31 3.57,-0.95 1.07,-0.65 1.91,-1.53 2.53,-2.65 0.61,-1.12 0.92,-2.38 0.92,-3.78 0,-1.38 -0.31,-2.64 -0.92,-3.77 -0.62,-1.12 -1.46,-2 -2.53,-2.65 -1.07,-0.64 -2.26,-0.97 -3.57,-0.97 -1.3,0 -2.49,0.33 -3.57,0.97 -1.08,0.65 -1.93,1.53 -2.55,2.65 -0.62,1.13 -0.93,2.39 -0.93,3.77 0,1.4 0.31,2.66 0.93,3.78 0.62,1.12 1.47,2 2.55,2.65 1.08,0.64 2.27,0.95 3.57,0.95zm12.84 0.44l11.58 -14.94 -11.01 0 0 -2.87 15.57 0 0 2.21 -11.52 14.89 12 0 0 2.88 -16.62 0 0 -2.17zm19.89 -9.92l12.67 0 0 2.82 -12.67 0 0 -2.82zm18.61 -14.55l2.99 0 10.14 13.43 0.02 0 10.11 -13.43 3.03 0 0 26.64 -3.47 0 0 -21.04 -9.21 12.28 -0.99 0 -9.15 -12.3 0 21.06 -3.47 0 0 -26.64zm41.73 27.21c-1.83,0 -3.43,-0.35 -4.79,-1.05 -1.36,-0.7 -2.43,-1.78 -3.19,-3.25 -0.77,-1.47 -1.15,-3.33 -1.15,-5.58l0 -10.67 3.35 0 0 10.58c0,2.22 0.5,3.9 1.49,5.06 0.99,1.16 2.41,1.73 4.25,1.73 1.86,0 3.28,-0.57 4.26,-1.72 0.99,-1.15 1.48,-2.84 1.48,-5.07l0 -10.58 3.37 0 0 10.67c0,2.24 -0.38,4.1 -1.15,5.57 -0.77,1.47 -1.84,2.56 -3.19,3.26 -1.36,0.7 -2.94,1.05 -4.73,1.05zm21.65 0c-1.78,0 -3.29,-0.31 -4.56,-0.94 -1.26,-0.62 -2.21,-1.45 -2.83,-2.47 -0.64,-1.02 -0.96,-2.11 -0.96,-3.29l3.26 0.02c0.01,0.73 0.22,1.4 0.63,2 0.4,0.6 0.99,1.07 1.75,1.42 0.77,0.34 1.69,0.52 2.75,0.52 1.49,0 2.62,-0.3 3.41,-0.88 0.78,-0.57 1.17,-1.38 1.17,-2.41 0,-0.72 -0.19,-1.29 -0.58,-1.72 -0.38,-0.42 -0.93,-0.75 -1.63,-0.98 -0.71,-0.22 -1.64,-0.44 -2.82,-0.63 -2.16,-0.32 -3.86,-0.92 -5.12,-1.8 -1.25,-0.88 -1.88,-2.25 -1.88,-4.1 0,-1.11 0.28,-2.11 0.82,-3 0.54,-0.89 1.34,-1.59 2.42,-2.1 1.07,-0.51 2.37,-0.76 3.91,-0.76 1.52,0 2.86,0.25 4.02,0.76 1.16,0.51 2.07,1.23 2.7,2.14 0.65,0.91 0.97,1.94 0.97,3.09l-3.31 0c-0.06,-0.96 -0.47,-1.74 -1.24,-2.3 -0.77,-0.58 -1.81,-0.87 -3.14,-0.87 -1.24,0 -2.18,0.28 -2.83,0.85 -0.66,0.56 -0.99,1.26 -0.99,2.11 0,0.64 0.15,1.16 0.44,1.54 0.29,0.4 0.77,0.73 1.44,0.99 0.68,0.26 1.65,0.49 2.93,0.7 1.47,0.24 2.72,0.53 3.75,0.9 1.04,0.37 1.89,0.95 2.56,1.75 0.67,0.81 1.01,1.89 1.01,3.25 0,1.33 -0.34,2.46 -1.01,3.4 -0.67,0.93 -1.61,1.63 -2.82,2.1 -1.21,0.48 -2.61,0.71 -4.22,0.71zm14.32 -24.45c-0.67,0 -1.22,-0.21 -1.64,-0.62 -0.42,-0.41 -0.63,-0.93 -0.63,-1.54 0,-0.6 0.21,-1.1 0.63,-1.52 0.42,-0.41 0.97,-0.61 1.66,-0.61 0.7,0 1.25,0.2 1.68,0.61 0.42,0.42 0.63,0.92 0.63,1.52 0,0.61 -0.21,1.13 -0.63,1.54 -0.43,0.41 -0.99,0.62 -1.7,0.62zm-1.66 3.9l3.37 0 0 19.98 -3.37 0 0 -19.98zm18.36 20.55c-1.89,0 -3.62,-0.47 -5.18,-1.42 -1.55,-0.95 -2.78,-2.22 -3.67,-3.84 -0.91,-1.61 -1.36,-3.38 -1.36,-5.3 0,-1.92 0.45,-3.68 1.36,-5.3 0.89,-1.61 2.12,-2.89 3.67,-3.84 1.56,-0.94 3.29,-1.42 5.18,-1.42 1.55,0 2.98,0.3 4.29,0.91 1.31,0.61 2.41,1.44 3.32,2.51 0.91,1.08 1.57,2.31 1.97,3.69l-3.47 0c-0.51,-1.26 -1.3,-2.24 -2.39,-2.92 -1.09,-0.68 -2.32,-1.02 -3.7,-1.02 -1.18,0 -2.29,0.31 -3.34,0.92 -1.05,0.6 -1.9,1.47 -2.55,2.59 -0.64,1.12 -0.97,2.42 -0.97,3.88 0,1.48 0.33,2.78 0.97,3.9 0.65,1.12 1.5,1.99 2.55,2.59 1.05,0.61 2.16,0.91 3.34,0.91 1.38,0 2.61,-0.34 3.7,-1.05 1.09,-0.71 1.88,-1.73 2.39,-3.06l3.45 0c-0.38,1.44 -1.02,2.7 -1.93,3.8 -0.91,1.1 -2.02,1.95 -3.33,2.56 -1.31,0.61 -2.75,0.91 -4.3,0.91z"/>
 </g>
</svg>
