<?xml version="1.0" encoding="UTF-8"?>
<!DOCTYPE svg PUBLIC "-//W3C//DTD SVG 1.1//EN" "http://www.w3.org/Graphics/SVG/1.1/DTD/svg11.dtd">
<!-- Creator: CorelDRAW 2021 (64 Bit) -->
<svg xmlns="http://www.w3.org/2000/svg" xml:space="preserve" width="300px" height="205px" version="1.1" style="shape-rendering:geometricPrecision; text-rendering:geometricPrecision; image-rendering:optimizeQuality; fill-rule:evenodd; clip-rule:evenodd"
viewBox="0 0 239.37 163.77"
 xmlns:xlink="http://www.w3.org/1999/xlink"
 xmlns:xodm="http://www.corel.com/coreldraw/odm/2003">
 <defs>
  <style type="text/css">
   <![CDATA[
    .str0 {stroke:#FEFEFE;stroke-width:0.21;stroke-miterlimit:22.9256}
    .fil0 {fill:#5263CE}
    .fil2 {fill:#5263CE}
    .fil1 {fill:#D1328E}
    .fil3 {fill:#FEFEFE;fill-rule:nonzero}
   ]]>
  </style>
 </defs>
 <g id="Camada_x0020_1">
  <metadata id="CorelCorpID_0Corel-Layer"/>
  <g id="_1414379941280">
   <path class="fil0" d="M87.8 73.71c1.06,3.87 11.83,4.39 9.3,-3.42 -2.18,-6.72 -10.72,-1.8 -9.3,3.42z"/>
   <path class="fil0" d="M194.24 72.91c0.71,4.84 10.97,5.2 9.66,-1.99 -1.17,-6.48 -10.51,-3.85 -9.66,1.99z"/>
   <path class="fil0" d="M61.59 75.08c0.17,-2.08 1.69,-4.6 -1.2,-6.91 -1.94,-1.55 -4.96,-1.33 -6.55,0.6 -3.28,3.98 0.54,10.53 7.75,6.31z"/>
   <path class="fil1" d="M8.27 75.54c3.32,-12.89 -12.8,-9.97 -7,0.23 3.01,1.5 3.98,1.13 7,-0.23z"/>
   <path class="fil1" d="M43.2 69.21c3.85,-6.74 -3.54,-9.89 -6.79,-6.81 -3.8,3.61 0.07,11.14 6.79,6.81z"/>
   <path class="fil0" d="M96.33 56.75c-10.52,-6.63 -10.72,13.13 -0.15,6.8 1.78,-2.81 1.74,-3.9 0.15,-6.8z"/>
   <path class="fil0" d="M194.47 60.24c0.34,5.24 10.33,5.83 9.05,-1.36 -1.06,-5.95 -9.4,-3.91 -9.05,1.36z"/>
   <path class="fil0" d="M194.53 84.8c0.55,4.19 9.96,5.98 9.06,-1.43 -0.81,-6.61 -9.77,-4.01 -9.06,1.43z"/>
   <path class="fil1" d="M43.69 80.84c1.9,-8.72 -5.77,-9.01 -7.83,-5.46 -2.44,4.18 1.56,9.62 7.83,5.46z"/>
   <path class="fil0" d="M88.26 49.15c0.61,4.33 9.66,5.27 8.9,-1.38 -0.7,-6.17 -9.69,-4.2 -8.9,1.38z"/>
   <path class="fil0" d="M159.58 80.04c1.01,4.02 10.12,3.88 8.32,-2.84 -1.48,-5.52 -9.75,-2.81 -8.32,2.84z"/>
   <path class="fil0" d="M123.98 55.49c0.84,4 9.56,4.32 8.45,-2.21 -0.97,-5.71 -9.61,-3.34 -8.45,2.21z"/>
   <path class="fil0" d="M17.66 80.04c0.89,4 10.07,3.87 8.31,-2.8 -1.46,-5.55 -9.48,-2.42 -8.31,2.8z"/>
   <path class="fil0" d="M159.39 66.58c0.81,3.9 9.73,4.23 8.56,-2.15 -1.03,-5.63 -9.67,-3.27 -8.56,2.15z"/>
   <path class="fil0" d="M25.5 68.16c2.39,-7.88 -4.81,-8.45 -6.92,-5.39 -2.56,3.71 0.9,8.84 6.92,5.39z"/>
   <path class="fil1" d="M35.4 54.69c0.55,3.79 9.09,4.8 8.1,-1.35 -0.89,-5.5 -8.8,-3.54 -8.1,1.35z"/>
   <path class="fil0" d="M88.94 38.06c0.94,3.53 9.56,3.35 7.68,-2.84 -1.54,-5.04 -9.02,-2.17 -7.68,2.84z"/>
   <path class="fil0" d="M88.86 108.56c0.82,3.74 8.9,3.86 7.81,-2.16 -0.97,-5.36 -8.93,-3.02 -7.81,2.16z"/>
   <path class="fil0" d="M195.7 49.15c1.05,3.69 8.84,2.69 7,-2.81 -1.56,-4.65 -8.38,-2.07 -7,2.81z"/>
   <path class="fil0" d="M195.42 96.68c0.37,3.76 8.6,4.59 7.32,-1.3 -1.11,-5.05 -7.71,-2.75 -7.32,1.3z"/>
   <path class="fil0" d="M53.55 59.45c0.47,3.71 8.1,4.08 7.27,-1.41 -0.73,-4.9 -7.83,-2.9 -7.27,1.41z"/>
   <path class="fil0" d="M130.85 39.7c-5.37,-2.38 -7.59,2.6 -5.08,5.08 2.61,2.57 7.83,0.55 5.08,-5.08z"/>
   <path class="fil1" d="M77.68 39.77c-5.74,-2.72 -7.33,2.83 -4.99,5.07 2.5,2.38 7.74,0.38 4.99,-5.07z"/>
   <path class="fil1" d="M72.84 98.72c-3.12,4.68 1.23,7.52 4.06,5.7 2.98,-1.92 2.17,-7.79 -4.06,-5.7z"/>
   <path class="fil0" d="M94.97 27.43c3.5,-4.19 -0.95,-7.27 -3.78,-5.38 -2.96,1.98 -1.72,7.7 3.78,5.38z"/>
   <circle class="fil2" cx="92.67" cy="1.5" r="1.5"/>
   <circle class="fil1" cx="39.84" cy="42.11" r="2.25"/>
   <circle class="fil1" cx="75.13" cy="30.69" r="2.48"/>
   <circle class="fil1" cx="74.96" cy="77.82" r="4.74"/>
   <circle class="fil1" cx="74.97" cy="65.59" r="4.47"/>
   <circle class="fil1" cx="74.89" cy="52.95" r="4.21"/>
   <circle class="fil1" cx="75.03" cy="90.71" r="4.47"/>
   <circle class="fil1" cx="110.49" cy="79.01" r="4.74"/>
   <circle class="fil1" cx="110.49" cy="66.75" r="4.21"/>
   <circle class="fil1" cx="110.49" cy="54.48" r="3.68"/>
   <circle class="fil1" cx="110.49" cy="91.27" r="4.21"/>
   <circle class="fil1" cx="110.49" cy="103.53" r="3.68"/>
   <circle class="fil1" cx="110.49" cy="42.22" r="3.16"/>
   <circle class="fil1" cx="110.49" cy="29.96" r="2.63"/>
   <circle class="fil1" cx="110.49" cy="115.79" r="3.16"/>
   <circle class="fil1" cx="110.49" cy="128.05" r="1.5"/>
   <circle class="fil1" cx="110.49" cy="17.7" r="1.5"/>
   <circle class="fil1" cx="75.02" cy="113.3" r="1.72"/>
   <circle class="fil1" cx="145.97" cy="59.32" r="4.21"/>
   <circle class="fil1" cx="145.77" cy="71.86" r="4.59"/>
   <circle class="fil1" cx="146.12" cy="84.5" r="4.13"/>
   <circle class="fil1" cx="146.14" cy="97.18" r="2.75"/>
   <circle class="fil1" cx="146.25" cy="46.93" r="2.75"/>
   <circle class="fil1" cx="181.41" cy="71.86" r="4.59"/>
   <circle class="fil1" cx="181.66" cy="84.95" r="3.68"/>
   <circle class="fil1" cx="181.49" cy="58.73" r="3.68"/>
   <circle class="fil1" cx="216.91" cy="65.07" r="4.59"/>
   <circle class="fil1" cx="217.09" cy="78.48" r="4.59"/>
   <circle class="fil1" cx="216.98" cy="52.18" r="3.16"/>
   <circle class="fil1" cx="217.05" cy="91.56" r="3.16"/>
   <circle class="fil0" cx="93.21" cy="95.35" r="4.47"/>
   <circle class="fil0" cx="92.71" cy="83.81" r="4.74"/>
   <circle class="fil0" cx="92.87" cy="130.8" r="2.63"/>
   <circle class="fil0" cx="128.53" cy="113.46" r="2.11"/>
   <circle class="fil1" cx="39.71" cy="101.79" r="2.63"/>
   <circle class="fil1" cx="39.44" cy="89.86" r="3.95"/>
   <circle class="fil2" cx="234.63" cy="71.82" r="4.74"/>
   <circle class="fil2" cx="92.63" cy="139.67" r="1.5"/>
   <circle class="fil2" cx="92.94" cy="119.09" r="3.16"/>
   <circle class="fil2" cx="128.19" cy="77.83" r="4.74"/>
   <circle class="fil2" cx="92.75" cy="12.91" r="2.48"/>
   <circle class="fil2" cx="128.47" cy="30.52" r="1.85"/>
   <circle class="fil2" cx="199.04" cy="35.69" r="1.85"/>
   <circle class="fil2" cx="57.2" cy="84.97" r="3.42"/>
   <circle class="fil2" cx="199.2" cy="108.23" r="2.11"/>
   <circle class="fil2" cx="128.33" cy="65.77" r="4.21"/>
   <circle class="fil2" cx="128.18" cy="89.61" r="4.21"/>
   <circle class="fil2" cx="128.16" cy="101.45" r="3.42"/>
  </g>
  <path class="fil3 str0" d="M32.53 137.35c1.65,0 3.11,0.36 4.41,1.09 1.31,0.72 2.33,1.72 3.06,3 0.73,1.28 1.1,2.71 1.1,4.32 0,1.65 -0.37,3.13 -1.09,4.42 -0.73,1.3 -1.74,2.31 -3.03,3.04 -1.28,0.73 -2.75,1.09 -4.37,1.09l-7.29 0 0 8.81 -3.36 0 0 -25.77 10.57 0zm-0.07 13.93c0.98,0 1.88,-0.24 2.69,-0.72 0.81,-0.49 1.44,-1.15 1.9,-1.99 0.46,-0.83 0.69,-1.77 0.69,-2.79 0,-0.97 -0.23,-1.88 -0.7,-2.71 -0.46,-0.84 -1.1,-1.5 -1.92,-1.98 -0.81,-0.49 -1.71,-0.73 -2.7,-0.73l-7.1 0 0 10.92 7.14 0zm15.69 -7.49l0 4.32c0.47,-1.35 1.22,-2.41 2.25,-3.17 1.02,-0.77 2.23,-1.15 3.62,-1.15l1.87 0 0 2.86 -1.7 0c-1.14,0 -2.16,0.3 -3.05,0.88 -0.9,0.59 -1.6,1.44 -2.11,2.55 -0.5,1.11 -0.76,2.42 -0.76,3.94l0 9.1 -3.27 0 0 -19.33 3.15 0zm19.03 19.88c-1.86,0 -3.57,-0.46 -5.1,-1.37 -1.54,-0.91 -2.74,-2.15 -3.62,-3.7 -0.88,-1.56 -1.32,-3.28 -1.32,-5.15 0,-1.85 0.44,-3.57 1.32,-5.13 0.88,-1.57 2.08,-2.81 3.61,-3.71 1.53,-0.91 3.23,-1.37 5.11,-1.37 1.89,0 3.6,0.46 5.14,1.37 1.54,0.9 2.75,2.14 3.63,3.7 0.88,1.56 1.32,3.28 1.32,5.14 0,1.87 -0.44,3.59 -1.32,5.15 -0.88,1.55 -2.09,2.79 -3.62,3.7 -1.54,0.91 -3.25,1.37 -5.15,1.37zm0.04 -3.08c1.26,0 2.41,-0.3 3.45,-0.92 1.03,-0.62 1.85,-1.48 2.44,-2.56 0.6,-1.09 0.9,-2.3 0.9,-3.66 0,-1.33 -0.3,-2.55 -0.9,-3.64 -0.59,-1.08 -1.41,-1.94 -2.44,-2.56 -1.04,-0.62 -2.19,-0.94 -3.45,-0.94 -1.26,0 -2.41,0.32 -3.46,0.94 -1.04,0.62 -1.86,1.48 -2.45,2.56 -0.61,1.09 -0.91,2.31 -0.91,3.64 0,1.36 0.3,2.57 0.91,3.66 0.59,1.08 1.41,1.94 2.45,2.56 1.05,0.62 2.2,0.92 3.46,0.92zm12.41 0.42l11.2 -14.44 -10.65 0 0 -2.78 15.06 0 0 2.14 -11.13 14.4 11.59 0 0 2.79 -16.07 0 0 -2.11zm19.24 -9.59l12.25 0 0 2.73 -12.25 0 0 -2.73zm17.99 -14.07l2.9 0 9.8 12.99 0.02 0 9.78 -12.99 2.93 0 0 25.77 -3.36 0 0 -20.36 -8.9 11.88 -0.96 0 -8.85 -11.89 0 20.37 -3.36 0 0 -25.77zm40.36 26.32c-1.77,0 -3.31,-0.34 -4.63,-1.02 -1.32,-0.67 -2.35,-1.72 -3.09,-3.14 -0.74,-1.43 -1.11,-3.22 -1.11,-5.4l0 -10.32 3.24 0 0 10.23c0,2.15 0.48,3.78 1.44,4.9 0.96,1.12 2.33,1.67 4.11,1.67 1.8,0 3.17,-0.55 4.12,-1.66 0.95,-1.11 1.43,-2.75 1.43,-4.91l0 -10.23 3.26 0 0 10.32c0,2.16 -0.37,3.96 -1.12,5.38 -0.74,1.43 -1.77,2.49 -3.08,3.16 -1.31,0.68 -2.84,1.02 -4.57,1.02zm20.93 0c-1.71,0 -3.18,-0.31 -4.4,-0.92 -1.22,-0.6 -2.14,-1.39 -2.75,-2.38 -0.61,-0.99 -0.92,-2.05 -0.92,-3.18l3.15 0.02c0.01,0.7 0.21,1.35 0.61,1.93 0.39,0.58 0.95,1.03 1.7,1.37 0.74,0.34 1.63,0.5 2.65,0.5 1.44,0 2.54,-0.28 3.3,-0.84 0.75,-0.56 1.14,-1.34 1.14,-2.34 0,-0.7 -0.19,-1.25 -0.57,-1.66 -0.37,-0.41 -0.9,-0.72 -1.57,-0.94 -0.69,-0.22 -1.6,-0.43 -2.73,-0.62 -2.09,-0.3 -3.74,-0.88 -4.95,-1.73 -1.21,-0.85 -1.82,-2.18 -1.82,-3.97 0,-1.08 0.27,-2.05 0.79,-2.91 0.52,-0.85 1.3,-1.53 2.34,-2.02 1.04,-0.49 2.3,-0.74 3.78,-0.74 1.47,0 2.77,0.25 3.89,0.74 1.13,0.49 2,1.18 2.61,2.06 0.62,0.89 0.94,1.89 0.94,3l-3.21 0c-0.05,-0.93 -0.45,-1.68 -1.19,-2.23 -0.75,-0.56 -1.75,-0.84 -3.04,-0.84 -1.19,0 -2.11,0.27 -2.74,0.82 -0.63,0.54 -0.95,1.22 -0.95,2.04 0,0.62 0.14,1.12 0.42,1.49 0.28,0.39 0.75,0.7 1.4,0.96 0.66,0.25 1.6,0.47 2.83,0.67 1.42,0.24 2.63,0.52 3.63,0.88 1,0.35 1.82,0.92 2.48,1.69 0.64,0.78 0.97,1.83 0.97,3.14 0,1.29 -0.33,2.38 -0.97,3.29 -0.66,0.9 -1.57,1.58 -2.73,2.03 -1.17,0.46 -2.53,0.69 -4.09,0.69zm13.85 -23.65c-0.65,0 -1.18,-0.2 -1.59,-0.6 -0.4,-0.39 -0.6,-0.89 -0.6,-1.49 0,-0.57 0.2,-1.06 0.6,-1.46 0.41,-0.4 0.95,-0.6 1.61,-0.6 0.67,0 1.21,0.2 1.63,0.6 0.4,0.4 0.61,0.89 0.61,1.46 0,0.6 -0.21,1.1 -0.61,1.49 -0.42,0.4 -0.96,0.6 -1.65,0.6zm-1.61 3.77l3.26 0 0 19.33 -3.26 0 0 -19.33zm17.76 19.88c-1.83,0 -3.5,-0.46 -5,-1.38 -1.51,-0.91 -2.7,-2.15 -3.56,-3.71 -0.87,-1.56 -1.31,-3.27 -1.31,-5.13 0,-1.85 0.44,-3.56 1.31,-5.12 0.86,-1.56 2.05,-2.8 3.56,-3.72 1.5,-0.91 3.17,-1.37 5,-1.37 1.5,0 2.88,0.29 4.15,0.88 1.26,0.59 2.33,1.4 3.21,2.43 0.88,1.05 1.51,2.23 1.9,3.57l-3.35 0c-0.49,-1.22 -1.26,-2.17 -2.31,-2.82 -1.05,-0.66 -2.24,-0.99 -3.58,-0.99 -1.14,0 -2.22,0.3 -3.23,0.88 -1.02,0.59 -1.84,1.43 -2.47,2.51 -0.62,1.09 -0.94,2.34 -0.94,3.75 0,1.43 0.32,2.69 0.94,3.77 0.63,1.09 1.45,1.93 2.47,2.51 1.01,0.59 2.09,0.88 3.23,0.88 1.34,0 2.53,-0.33 3.58,-1.02 1.05,-0.68 1.82,-1.67 2.31,-2.95l3.34 0c-0.37,1.39 -0.99,2.61 -1.87,3.67 -0.88,1.06 -1.95,1.89 -3.22,2.48 -1.27,0.58 -2.66,0.88 -4.16,0.88z"/>
 </g>
</svg>
